<?xml version="1.0" encoding="UTF-8" standalone="no"?>
<svg
   width="49"
   height="45.999748"
   fill="none"
   version="1.1"
   id="svg928"
   sodipodi:docname="agave-logo.svg"
   inkscape:version="1.1.1 (3bf5ae0d25, 2021-09-20)"
   xmlns:inkscape="http://www.inkscape.org/namespaces/inkscape"
   xmlns:sodipodi="http://sodipodi.sourceforge.net/DTD/sodipodi-0.dtd"
   xmlns="http://www.w3.org/2000/svg"
   xmlns:svg="http://www.w3.org/2000/svg">
  <sodipodi:namedview
     id="namedview930"
     pagecolor="#505050"
     bordercolor="#eeeeee"
     borderopacity="1"
     inkscape:pageshadow="0"
     inkscape:pageopacity="0"
     inkscape:pagecheckerboard="0"
     showgrid="false"
     fit-margin-top="0"
     fit-margin-left="0"
     fit-margin-right="0"
     fit-margin-bottom="0"
     inkscape:zoom="8.2014388"
     inkscape:cx="58.282456"
     inkscape:cy="23.044737"
     inkscape:window-width="1920"
     inkscape:window-height="1131"
     inkscape:window-x="0"
     inkscape:window-y="32"
     inkscape:window-maximized="1"
     inkscape:current-layer="svg928" />
  <g
     fill-rule="evenodd"
     id="g917">
    <path
       d="M 24.5,45.083 24.063,44.744 20.597,41.969 C 17.867,39.117 14.076,34.995 11.641,29.126 9.206,23.257 8.6,17.353 8.522,13.436 8.453,9.994 8.759,7.279 9.331,3.985 l 1.862,1.325 c 0.1,0.072 2.475,1.771 5.433,4.863 2.361,2.467 5.495,6.263 7.874,11.043 2.379,-4.78 5.513,-8.576 7.874,-11.043 2.958,-3.091 5.333,-4.792 5.433,-4.863 l 1.862,-1.325 c 0.571,3.293 0.878,6.009 0.809,9.451 -0.078,3.919 -0.684,9.821 -3.118,15.691 -2.434,5.87 -6.227,9.991 -8.956,12.843 -0.674,0.706 -2.417,1.976 -3.466,2.775 l -0.437,0.338 z"
       fill="#00aa96"
       id="path911" />
    <path
       d="M 0.159,15.693 0,13.436 2.128,14.29 c 0.373,0.148 8.517,3.479 14.873,10.886 L 16.984,24.133 C 16.984,15.424 19.878,7.305 24.5,0 c 4.622,7.304 7.516,15.424 7.516,24.133 a 34.62,34.62 0 0 1 -0.017,1.043 C 38.355,17.769 46.499,14.44 46.872,14.29 L 49,13.436 48.841,15.693 c -2.775,40.409 -45.907,40.409 -48.682,0 z"
       fill="url(#A)"
       id="path913"
       style="fill:url(#A)" />
    <path
       d="m 21.98,36.258 c -0.584,0 -0.819,0.223 -0.819,0.772 0,1.338 1.5,2.424 3.343,2.424 1.843,0 3.338,-1.088 3.338,-2.424 0,-0.549 -0.237,-0.772 -0.819,-0.772 a 7.4,7.4 0 0 0 -0.928,0.092 l -0.029,0.005 a 10.93,10.93 0 0 1 -1.563,0.14 c -0.52,-0.008 -1.049,-0.056 -1.564,-0.14 -0.316,-0.053 -0.638,-0.087 -0.958,-0.097 z"
       fill="#00aa96"
       id="path915" />
  </g>
  <path
     d="m 15.973,36.406 c 1.485,0 2.688,-1.187 2.688,-2.651 0,-1.464 -1.203,-2.651 -2.688,-2.651 -1.485,0 -2.688,1.187 -2.688,2.651 0,1.464 1.204,2.651 2.688,2.651 z m 17.051,0 c 1.485,0 2.688,-1.187 2.688,-2.651 0,-1.464 -1.203,-2.651 -2.688,-2.651 -1.485,0 -2.688,1.187 -2.688,2.651 0,1.464 1.203,2.651 2.688,2.651 z"
     fill="#00aa96"
     id="path919" />
  <defs
     id="defs926">
    <linearGradient
       id="A"
       x1="24.5"
       y1="-4.5999999"
       x2="24.5"
       y2="46"
       gradientUnits="userSpaceOnUse">
      <stop
         stop-color="#00b59c"
         id="stop921" />
      <stop
         offset="1"
         stop-color="#8ef8ab"
         id="stop923" />
    </linearGradient>
  </defs>
</svg>
