<svg width="28" height="32" fill="none" xmlns="http://www.w3.org/2000/svg"><path opacity=".5" d="M14 32s-.017 0 0 0h-.017a.693.693 0 0 1-.362-.101l-4.925-2.526a.83.83 0 0 1-.362-1.129.796.796 0 0 1 1.104-.37l3.739 1.92v-4.53c0-.472.362-.843.823-.843.461 0 .823.37.823.842v4.53l3.756-1.92a.823.823 0 0 1 1.103.371c.198.421.033.927-.362 1.129l-4.925 2.526a.752.752 0 0 1-.378.101H14s.017 0 0 0Zm8.235-4.21a.83.83 0 0 1-.74-.472c-.198-.421-.034-.926.361-1.129l3.476-1.768-3.476-1.768a.83.83 0 0 1-.362-1.129.796.796 0 0 1 1.104-.37l3.755 1.903v-4.53c0-.472.362-.843.823-.843.462 0 .824.37.824.842v5.878a.845.845 0 0 1-.066.354c0 .017-.016.034-.033.05a.744.744 0 0 1-.362.354l-4.941 2.526a.693.693 0 0 1-.363.102Zm-16.47 0a.882.882 0 0 1-.363-.085L.478 25.18a.824.824 0 0 1-.363-.354c-.016-.017-.016-.033-.033-.05a.8.8 0 0 1-.082-.37v-5.879c0-.471.362-.842.824-.842.46 0 .823.37.823.842v4.53l3.755-1.92a.823.823 0 0 1 1.104.371c.198.421.033.927-.362 1.129L2.668 24.42l3.476 1.768a.83.83 0 0 1 .362 1.129.83.83 0 0 1-.741.471ZM14 20.21a.825.825 0 0 1-.823-.842v-4.53l-4.48-2.29a.861.861 0 0 1-.38-1.13.796.796 0 0 1 1.104-.37L14 13.373l4.579-2.341a.823.823 0 0 1 1.103.37c.198.421.033.926-.362 1.129l-4.497 2.307v4.53a.825.825 0 0 1-.823.843Zm13.177-5.894a.825.825 0 0 1-.824-.842v-4.53l-3.755 1.92a.823.823 0 0 1-1.104-.371c-.197-.405-.033-.927.363-1.129l3.475-1.768-3.476-1.769a.83.83 0 0 1-.362-1.128c.214-.421.692-.59 1.104-.37l4.924 2.526c.149.067.28.202.363.353.016.017.016.034.033.05a.602.602 0 0 1 .082.338v5.878a.825.825 0 0 1-.823.842Zm-26.353 0A.825.825 0 0 1 0 13.474V7.596c0-.118.016-.236.066-.354 0-.017.016-.034.033-.05a.744.744 0 0 1 .362-.354l4.941-2.526a.823.823 0 0 1 1.104.37c.198.421.033.926-.362 1.129L2.668 7.579l3.476 1.768a.83.83 0 0 1 .362 1.129c-.214.42-.708.59-1.104.387l-3.755-1.92v4.53a.825.825 0 0 1-.823.843ZM14 7.579a.825.825 0 0 1-.823-.842v-4.53L9.42 4.126c-.395.201-.89.033-1.103-.388a.861.861 0 0 1 .378-1.128L13.621.084A.823.823 0 0 1 13.983 0h.034c.131 0 .247.034.362.101l4.925 2.526a.83.83 0 0 1 .362 1.129.796.796 0 0 1-1.104.37l-3.739-1.92v4.53A.825.825 0 0 1 14 7.58Z" fill="#fff" style="fill:#3d3eda;fill-opacity:1"/></svg>