<?xml version="1.0" encoding="UTF-8"?>
<svg fill="none" viewBox="0 0 512 512" xmlns="http://www.w3.org/2000/svg">
<g opacity=".9">
<circle cx="256" cy="256" r="256" fill="url(#a)"/>
<g fill="#fff" filter="url(#b)">
<path d="m125.67 125.67c55.111-55.111 136.44-68.028 203.84-38.749l-35.172 35.172c-47.042-13.42-99.763-1.608-136.81 35.436-48.963 48.963-53.846 125.31-14.648 179.74l52.3-52.3 31.859 31.86-84.477 84.477c-5.858-4.585-11.501-9.573-16.894-14.966-71.981-71.982-71.981-188.69 0-260.67z"/>
<path d="m182.5 425.08c67.4 29.278 148.73 16.362 203.84-38.749 71.981-71.982 71.981-188.69 0-260.67-5.393-5.393-11.036-10.381-16.894-14.966l-84.477 84.477 31.86 31.86 52.299-52.3c39.198 54.425 34.315 130.78-14.647 179.74-37.044 37.045-89.766 48.857-136.81 35.437l-35.172 35.172z"/>
<path d="M287.86 256L256 224.141L224.141 256L256 287.859L287.86 256Z"/>
<path d="m195.18 163.32l31.859 31.859-31.859 31.86-31.86-31.86 31.86-31.859z"/>
<path d="m348.68 316.82l-31.859-31.859-31.86 31.859 31.86 31.86 31.859-31.86z"/>
</g>
</g>
<defs>
<filter id="b" x="69.68" y="69.68" width="372.64" height="372.64" color-interpolation-filters="sRGB" filterUnits="userSpaceOnUse">
<feFlood flood-opacity="0" result="BackgroundImageFix"/>
<feColorMatrix in="SourceAlpha" values="0 0 0 0 0 0 0 0 0 0 0 0 0 0 0 0 0 0 127 0"/>
<feOffset/>
<feGaussianBlur stdDeviation="1"/>
<feColorMatrix values="0 0 0 0 0 0 0 0 0 0 0 0 0 0 0 0 0 0 0.25 0"/>
<feBlend in2="BackgroundImageFix" result="effect1_dropShadow"/>
<feBlend in="SourceGraphic" in2="effect1_dropShadow" result="shape"/>
</filter>
<radialGradient id="a" cx="0" cy="0" r="1" gradientTransform="translate(256 256) rotate(90) scale(256)" gradientUnits="userSpaceOnUse">
<stop stop-color="#304FFE" offset="0"/>
<stop stop-color="#3D5AFE" offset="1"/>
</radialGradient>
</defs>
</svg>
