<svg fill="none" viewBox="0 0 600 600" xmlns="http://www.w3.org/2000/svg"><rect width="600" height="600" rx="0" fill="#04795b"/><g fill="#efefef"><path d="M238.32 320.713c8.957 0 17.226-2.985 23.888-8.15l-54.668-54.648c-5.169 6.543-8.154 14.81-8.154 23.88-.116 21.468 17.342 38.918 38.933 38.918zM400.945 281.684c0-8.955-2.985-17.221-8.154-23.88l-54.668 54.648c6.546 5.166 14.815 8.15 23.888 8.15 21.478.116 38.934-17.335 38.934-38.918z"/><path d="m428.512 222.328-24.233 24.224c8.04 9.643 12.863 21.813 12.863 35.36 0 30.423-24.693 55.106-55.128 55.106-13.437 0-25.726-4.822-35.373-12.858l-26.53 26.52-26.53-26.52c-9.647 8.036-21.822 12.858-35.374 12.858-30.435 0-55.126-24.683-55.126-55.106 0-13.432 4.823-25.717 12.862-35.36l-12.404-12.4-11.829-11.824c-13.782 22.732-21.706 49.252-21.706 77.726 0 82.888 67.186 149.931 149.995 149.931 82.806 0 149.995-67.16 149.995-149.931.23-28.587-7.695-55.107-21.477-77.726z"/><path d="M408.64 196.498c-27.218-28.586-65.808-46.496-108.53-46.496-42.724 0-81.2 17.91-108.531 46.496a180.379 180.379 0 0 0-10.566 12.284l118.986 118.939 118.986-119.053c-2.987-4.133-6.547-8.381-10.337-12.17zm-108.53-26.979c35.143 0 67.76 13.547 92.222 38.23l-92.222 92.19-92.223-92.19c24.577-24.683 57.08-38.23 92.223-38.23z"/></g></svg>