<?xml version="1.0" encoding="UTF-8"?>
<svg fill="none" version="1.1" viewBox="0 0 600 600" xmlns="http://www.w3.org/2000/svg">
<rect width="600" height="600" rx="0" fill="#04795b"/>
<g transform="matrix(.6571 0 0 .65709 102.98 102.98)">
<g transform="matrix(1.1538 0 0 1.1538 -46.129 -46.129)" fill="#efefef">
<path d="m218.49 327.17c11.815 0 22.722-3.937 31.508-10.751l-72.106-72.08c-6.817 8.631-10.755 19.534-10.755 31.497-0.152 28.317 22.874 51.334 51.353 51.334z"/>
<path d="m432.99 275.69c0-11.811-3.938-22.714-10.755-31.497l-72.106 72.08c8.634 6.814 19.541 10.751 31.508 10.751 28.328 0.152 51.353-22.865 51.353-51.334z"/>
<path d="m469.35 197.4-31.963 31.951c10.604 12.72 16.966 28.772 16.966 46.64 0 40.128-32.569 72.685-72.712 72.685-17.723 0-33.932-6.36-46.657-16.96l-34.992 34.98-34.993-34.98c-12.724 10.6-28.782 16.96-46.657 16.96-40.143 0-72.711-32.557-72.711-72.685 0-17.717 6.362-33.92 16.966-46.64l-16.361-16.354-15.602-15.597c-18.178 29.983-28.63 64.963-28.63 102.52 0 109.33 88.617 197.76 197.84 197.76 109.22 0 197.84-88.585 197.84-197.76 0.303-37.706-10.149-72.686-28.327-102.52z"/>
<path d="m443.14 163.33c-35.901-37.705-86.8-61.328-143.15-61.328-56.352 0-107.1 23.623-143.15 61.328-4.847 5.149-9.543 10.6-13.936 16.203l156.94 156.88 156.94-157.03c-3.939-5.452-8.635-11.055-13.634-16.052zm-143.15-35.585c46.354 0 89.375 17.868 121.64 50.425l-121.64 121.6-121.64-121.6c32.417-32.557 75.287-50.425 121.64-50.425z"/>
</g>
</g>
</svg>
